<svg xmlns="http://www.w3.org/2000/svg" xmlns:xlink="http://www.w3.org/1999/xlink" width="6000" height="3000" viewBox="0 0 1200 600"><defs><path id="a" fill="#fff" d="M0 0l100 50L0 100z"/></defs><g id="b"><use x="-100" y="-50" transform="scale(-1 1)" fill-opacity=".1" xlink:href="#a"/><use fill-opacity=".15" xlink:href="#a"/><use x="-100" y="50" transform="scale(-1 1)" fill-opacity=".15" xlink:href="#a"/><use y="100" fill-opacity=".15" xlink:href="#a"/><use x="-100" y="150" transform="scale(-1 1)" fill-opacity=".2" xlink:href="#a"/><use y="200" fill-opacity=".1" xlink:href="#a"/><use x="-100" y="250" transform="scale(-1 1)" fill-opacity=".1" xlink:href="#a"/><use x="100" y="-50" fill-opacity=".15" xlink:href="#a"/><use x="-200" transform="scale(-1 1)" fill-opacity=".2" xlink:href="#a"/><use x="100" y="50" fill-opacity=".15" xlink:href="#a"/><use x="-200" y="100" transform="scale(-1 1)" fill-opacity=".1" xlink:href="#a"/><use x="100" y="150" fill-opacity=".05" xlink:href="#a"/><use x="-200" y="200" transform="scale(-1 1)" fill-opacity=".1" xlink:href="#a"/><use x="100" y="250" fill-opacity=".15" xlink:href="#a"/><use x="-300" y="-50" transform="scale(-1 1)" fill-opacity=".1" xlink:href="#a"/><use x="200" fill-opacity=".1" xlink:href="#a"/><use x="-300" y="50" transform="scale(-1 1)" fill-opacity=".15" xlink:href="#a"/><use x="200" y="100" fill-opacity=".1" xlink:href="#a"/><use x="-300" y="150" transform="scale(-1 1)" fill-opacity=".05" xlink:href="#a"/><use x="200" y="200" fill-opacity=".1" xlink:href="#a"/><use x="-300" y="250" transform="scale(-1 1)" fill-opacity=".1" xlink:href="#a"/><use x="300" y="-50" fill-opacity=".1" xlink:href="#a"/><use x="-400" transform="scale(-1 1)" fill-opacity=".1" xlink:href="#a"/><use x="300" y="50" fill-opacity=".05" xlink:href="#a"/><use x="-400" y="100" transform="scale(-1 1)" fill-opacity=".15" xlink:href="#a"/><use x="300" y="150" fill-opacity=".15" xlink:href="#a"/><use x="-400" y="200" transform="scale(-1 1)" fill-opacity=".05" xlink:href="#a"/><use x="300" y="250" fill-opacity=".1" xlink:href="#a"/><use x="-500" y="-50" transform="scale(-1 1)" fill-opacity=".15" xlink:href="#a"/><use x="400" fill-opacity=".2" xlink:href="#a"/><use x="-500" y="50" transform="scale(-1 1)" fill-opacity=".05" xlink:href="#a"/><use x="400" y="100" fill-opacity=".1" xlink:href="#a"/><use x="-500" y="150" transform="scale(-1 1)" fill-opacity=".15" xlink:href="#a"/><use x="400" y="200" fill-opacity=".05" xlink:href="#a"/><use x="-500" y="250" transform="scale(-1 1)" fill-opacity=".15" xlink:href="#a"/><use x="500" y="-50" fill-opacity=".1" xlink:href="#a"/><use x="-600" transform="scale(-1 1)" fill-opacity=".1" xlink:href="#a"/><use x="500" y="50" fill-opacity=".2" xlink:href="#a"/><use x="-600" y="100" transform="scale(-1 1)" fill-opacity=".1" xlink:href="#a"/><use x="500" y="150" fill-opacity=".15" xlink:href="#a"/><use x="-600" y="200" transform="scale(-1 1)" fill-opacity=".1" xlink:href="#a"/><use x="500" y="250" fill-opacity=".1" xlink:href="#a"/></g><use x="-600" y="300" transform="scale(-1 1)" xlink:href="#b"/><use x="-1200" y="-200" transform="rotate(180)" xlink:href="#b"/><use x="600" y="-400" transform="scale(1 -1)" xlink:href="#b"/><use x="600" y="-700" transform="scale(1 -1)" xlink:href="#b"/></svg>