<svg xmlns="http://www.w3.org/2000/svg" viewBox="0 0 1920 1448"><g style="isolation:isolate"><path fill="#2d2f77" d="M-35-48h1996v1538H-35z" data-name="Layer 5"/><path fill="#5869dd" d="M-143 658l332-420 536 332 260-348 456 312 664-448 272 384-16 1184-2772 24-24-956 292-64z" data-name="Layer 4"/><path d="M-51.5 827.5l170-302 556 324 402-342 442 168 264-290 368 288 14 838s-2462-8-2464-30 2-626 2-626z" fill="#4b5ac6" data-name="Layer 3"/><path fill="#4548b6" d="M-129.5 895.5l414-168 288 284 388-206 428 130 366-250 354 98 22 686-2350-36 90-538z" data-name="Layer 2"/><path fill="#222359" d="M-69.5 935.5l482 344 380-178 416 152 256-248 334 160 252-356-2 672-2162-12 44-534z" data-name="Layer 1"/><path style="mix-blend-mode:hue" fill="#2d2f77" d="M-63 298h2036v1216H-63z" data-name="Layer 6"/><path opacity=".7" fill="#2d2f77" d="M-63-46h2036v1560H-63z" data-name="Layer 7"/></g></svg>