<svg xmlns="http://www.w3.org/2000/svg" viewBox="0 0 1920 1070.2"><style>.error-404-1{fill:#00c671}.error-404-2{opacity:.2}.error-404-3{fill:#191c3c}.error-404-4{opacity:8.000000e-02;fill:#f5f7f9}.error-404-5{fill:#1e2022}.error-404-7{fill:#00c9a7}.error-404-9{fill:#7783a0}.error-404-10{fill:#3a3c4e}.error-404-11{fill:#fec55e}.error-404-13{opacity:.3;fill:#191c3c}.error-404-18{fill:#fff}.error-404-21{opacity:.1;fill:#191c3c}.error-404-22{fill:#d8ed96}.error-404-25{fill:#d1d3db}.error-404-26{fill:#377dff}.error-404-27{fill:#2d1582}.error-404-28{fill:#474963}.error-404-29{fill:#4d5068}.error-404-31{opacity:.11}.error-404-32{fill:#dae1e9}.error-404-33,.error-404-34{fill:none;stroke:#dae1e9;stroke-width:1.92;stroke-miterlimit:10}.error-404-34{stroke-width:5.76}.error-404-35{fill:#e4edf7}.error-404-37{fill:none;stroke:#dae1e9;stroke-width:1.8812;stroke-miterlimit:10}.error-404-39{fill:#fed17e}.error-404-42{fill:#dd9c3e}</style><path fill="#f0f1f3" d="M0 0h1920v1070.2H0z"/><path class="error-404-1" d="M1574.8 471.2s-.4.4 0 0zm5-4.6c-5-5-11.1-9.6-18-11.5s-15-1.2-20.7 2.7c8.8 9.2 21.5 14.2 33.8 13.4 1.9 0 7.3.4 8.8-.8.4-.4-.8-1.5-1.9-2.7-.5 0-1.6-.8-2-1.1z"/><g class="error-404-2"><path class="error-404-3" d="M1581.7 468.1c-.4-.4-1.5-1.2-1.9-1.5-5-5-11.1-9.6-18-11.5-3.5-.8-6.9-1.2-10.4-.8 3.8 0 8.1 1.2 11.5 3.1 6.1 3.1 11.1 8.4 15.4 14.2 1.9 0 4.6-.4 5.4-.8.3-.4-.9-1.9-2-2.7z"/></g><path class="error-404-1" d="M1585.5 455.8c1.2 3.1 2.3 7.3 1.2 10-.8 2.3-2.7 5.4-5 5-1.9-2.3-5.8-7.3-8.1-9.2-1.9-1.5-5-3.5-6.9-5-5-4.2-6.5-10.4-9.2-16.1 5 .4 9.6 1.5 14.6 2.7 3.1.8 6.1 1.9 8.4 4.2 2.7 1.9 4.3 5 5 8.4z"/><path class="error-404-4" d="M1575.2 461.6c-1.5-1.9-4.6-4.2-6.1-6.1-3.5-4.2-4.6-9.2-5.8-14.6-1.9-.4-3.8-.8-6.1-.8 2.7 6.1 4.6 11.9 9.2 16.1 1.9 1.9 5 3.5 6.9 5 1.2.8 2.7 2.7 3.8 4.2 0-1.5-1.2-3.1-1.9-3.8z"/><path class="error-404-1" d="M1588.2 440.1c1.5 4.6 1.5 9.2 1.5 14.2 0 1.9.4 5 0 6.5s-1.2 3.1-2.3 4.2c-.8 1.2-1.5-.4-2.3-1.2-.8-1.2-1.9-2.7-1.2-2.3-.8-2.7-1.2-4.6-1.9-7.3-.8-2.3-1.5-4.2-1.9-6.5-.8-5.4 0-11.1 1.2-16.5 3.1 2.3 5.4 5.4 6.9 8.9z"/><path class="error-404-5" d="M1544.4 458.5c6.1-.4 12.3 0 18.4 1.5 5.8 1.5 10.8 4.2 15.7 8.1.4.4.4-.4.4-.4-4.6-3.5-10-6.1-15.7-7.7-6.5-1.9-12.6-1.9-18.8-1.5zm15-16.5c5 2.3 9.6 5.4 13.4 9.2 4.2 4.2 7.3 9.2 10.4 14.2h.4c-5.4-10.4-13-18.8-24.2-23.4zm22.3-8.8c3.5 9.6 7.3 19.2 5 29.6 0 .4.4.4.4 0 1.9-10.1-1.2-20.4-5.4-29.6z"/><path class="error-404-5" d="M1549.1 462.3c.8-.8 1.2-1.5 1.9-1.9.8-.8 1.5-1.2 2.3-1.5-1.6.4-3.5 1.5-4.2 3.4zm4.9 2.3c1.9-3.1 4.2-4.2 7.7-4.6.4 0 .4-.4 0-.4-3 .4-6.5 1.6-7.7 5zm6.2.4c1.9-1.5 3.8-3.8 6.9-3.1 0 0 .4-.4 0-.4-2.7-.7-5 1.6-6.9 3.5zm6.1 3.5c1.9-2.3 4.6-4.6 7.7-3.1.4 0 .4-.4 0-.4-2.7-1.5-6.1.4-7.7 3.5zm-14.2-13.8c.4 1.9 2.3 3.1 3.8 4.2 0 0 .4 0 0-.4-1.5-.8-3-1.9-3.8-3.8z"/><path class="error-404-5" d="M1558.7 455c.8 1.9 1.9 3.5 3.5 5 0 0 .4 0 .4-.4-1.6-1.1-2.8-2.6-3.9-4.6zm5.7 2.3c.4.8.8 1.9 1.5 2.7.4.8 1.2 1.5 1.9 1.9h.4v-.4h-.4v.4c.4 0-.8-1.2-.8-1.2-.4-.4-.4-.8-.8-.8-.6-1-1.4-1.8-1.8-2.6zm4.6 2.3c1.2 1.9 3.1 3.8 5 5.4.4.4.4 0 .4-.4-1.9-1.5-3.5-3.4-5.4-5zm-6.5-11.1c3.5-.4 6.5 0 9.6 1.9.4 0 .4-.4.4-.4-3.1-1.9-6.9-2.6-10-1.5zm5.4 5.8c1.5 0 3.5 0 5 .4s3.1.8 4.2 1.5c.4 0 .4-.4 0-.4-2.7-1.1-6.2-2.3-9.2-1.5zm6.5 5c1.2 0 2.3.4 3.5.4 1.2.4 2.3.8 3.1 1.9 0 0 .4 0 .4-.4-.8-.8-1.5-1.5-3.1-1.9h-3.9z"/><path class="error-404-5" d="M1569.8 444.7c0 1.2.8 2.7 1.2 3.8.4.8.8 1.9 1.5 2.3-1.6-1.9-1.6-4.6-2.7-6.1 0-.4 0-.4 0 0zm5 1.5c.4 3.5 1.5 6.9 2.7 10h.4c-1.6-3.5-2-6.9-3.1-10 0-.4 0-.4 0 0zm5.7 7.3c0 3.1.8 6.1 1.2 8.8 0 .4.4 0 .4 0-.8-3-1.2-6.1-1.6-8.8 0-.4 0-.4 0 0zm0-14.6c1.9 2.3 3.8 5 5 7.7 0 .4.4 0 .4-.4-1.1-2.7-3.1-5.4-5.4-7.3 0-.4 0-.4 0 0zm7 .4c-1.2 2.3-1.2 5-1.2 7.7 0 .4.4.4.4 0 0-1.5.4-2.7.4-4.2 0-1.2.4-2.4.4-3.5zm-3.9 8.4c1.5 2.3 2.7 5 3.5 7.7 0-3-1.6-5.7-3.5-7.7 0-.3 0 0 0 0zm3.9 7.7c.8-1.9 1.2-3.5 2.3-5 0 0 0-.4-.4 0-.8 1.2-1.9 3.1-1.9 5z"/><path d="M0 878.6s247.7-143.2 566.4-66.4 489.6-78.7 604.8-145.9 493.4-357.9 748.8-175.1v578.7H0V878.6z" fill="#d4dbe3"/><path class="error-404-7" d="M453.5 689.3c.8.4 0 0 0 0zm-5-2.7c-.8.8-1.9 1.9-1.5 1.9 1.2.8 5 .8 6.5.4 9.6.4 19.2-3.5 25.7-10.4-4.6-3.1-10.4-3.5-15.7-1.9-5.4 1.5-10 5-13.8 8.8 0 .4-.8 1.2-1.2 1.2z"/><g class="error-404-2"><path class="error-404-3" d="M448.5 686.6c.4-.4 1.2-.8 1.5-1.2 3.8-3.8 8.4-7.3 13.8-8.8 2.7-.8 5.4-1.2 7.7-.8-3.1 0-6.1.8-8.8 2.3-4.6 2.3-8.4 6.5-11.5 10.8-1.5 0-3.5 0-4.2-.4-.4 0 .7-.8 1.5-1.9z"/></g><path class="error-404-7" d="M449.3 670.8c1.9-1.5 4.2-2.3 6.5-3.1 3.5-1.2 7.3-1.9 11.1-1.9-1.9 4.6-3.5 8.8-6.9 12.3-1.5 1.2-3.8 2.7-5.4 3.8-1.9 1.5-4.6 5.4-6.1 6.9-1.5.4-3.1-1.9-3.8-3.8-.8-2.3 0-5.4.8-7.7.7-2.2 1.9-4.5 3.8-6.5z"/><path class="error-404-4" d="M453.5 682c1.2-1.5 3.5-3.1 4.6-4.6 2.7-3.1 3.5-6.9 4.2-10.8 1.5-.4 3.1-.4 4.6-.8-1.9 4.6-3.5 8.8-6.9 12.3-1.5 1.2-3.8 2.7-5.4 3.8l-3.1 3.1c.5-1.1 1.2-2.6 2-3z"/><path class="error-404-7" d="M448.9 658.6c.8 4.2 1.5 8.4.8 12.7-.4 1.5-.8 3.5-1.5 5-.8 2.3-.8 3.5-1.5 5.4.4-.4-.4 1.2-.8 1.9-.4.8-1.2 1.9-1.9.8-.8-.8-1.5-1.9-1.5-3.1-.4-1.2 0-3.5 0-5 0-3.5 0-7.3 1.2-10.8 1-2.7 2.9-5 5.2-6.9z"/><path class="error-404-3" d="M476.5 679.7c-4.6 0-9.2 0-13.8 1.2-4.2 1.2-8.4 3.5-11.9 6.1-.4 0-.4 0 0-.4 3.5-2.7 7.7-4.6 11.9-6.1 4.6-1.2 9.2-1.2 13.8-.8.4 0 .4 0 0 0zM465.4 667c-3.8 1.9-7.3 4.2-10.4 7.3s-5.4 6.9-8.1 10.8c0 0-.4 0 0 0 4.3-8.1 10.1-14.6 18.5-18.1zm-16.9-6.5c-2.3 7.3-5.4 14.6-3.8 22.3 0 0-.4.4-.4 0-1.2-7.3.8-15.8 4.2-22.3z"/><path class="error-404-3" d="M473.5 682.4l-1.5-1.5c-.8-.4-1.2-.8-1.9-1.2 1.1.4 2.6 1.5 3.4 2.7zm-3.9 1.9c-1.2-2.3-3.1-3.1-5.8-3.5-.4 0 0-.4 0-.4 2.4.4 4.7 1.2 5.8 3.9zm-5 .4c-1.5-1.2-3.1-3.1-5.4-2.3 2.4-1.2 4.3.7 5.4 2.3.4 0 0 0 0 0zM460 687c-1.5-1.9-3.5-3.5-5.8-2.3 0 0-.4 0 0-.4 2.4-.8 4.7.8 5.8 2.7zm10.8-10.4c-.4 1.5-1.5 2.3-2.7 3.1 1.1-.8 2.3-1.6 2.7-3.1zm-5 .4c-.4 1.5-1.5 2.7-2.7 3.8 0 0-.4 0 0 0 1.2-1.1 1.9-2.3 2.7-3.8zm-4.2 1.5c-.4.8-.8 1.2-1.2 1.9-.4.4-.8 1.2-1.5 1.5v-.4s.8-.8.4-.8l.8-.8c1.1.2 1.5-.6 1.5-1.4z"/><path class="error-404-3" d="M458.1 680.4c-.8 1.5-2.3 3.1-3.8 4.2 0 0-.4 0-.4-.4 1.5-1.1 3.1-2.2 4.2-3.8zm5-8.4c-2.7 0-5 0-7.3 1.5 0 0-.4 0 0-.4 1.9-1.1 5-1.9 7.3-1.1zm-4.2 4.2c-1.2 0-2.3 0-3.8.4-1.2.4-2.3.8-3.5 1.2 0 0-.4 0 0-.4 2.7-.8 5-1.6 7.3-1.2zm-5 4.2c-.8 0-1.9 0-2.7.4-1.2.4-1.5.8-2.3 1.5 0 0-.4 0 0 0 .8-.8 1.2-1.2 2.3-1.5 1.2-.4 1.9-.7 2.7-.4.4-.3.4 0 0 0z"/><path class="error-404-3" d="M457.7 668.9c0 .8-.4 1.9-.8 2.7-.4.4-.4 1.5-1.2 1.5.9-1.1.9-3 2-4.2zm-4.2 1.2c-.4 2.7-1.2 5.4-1.9 7.7h-.4c1.2-2.3 1.9-5 2.3-7.7 0 0 .4 0 0 0zm-4.2 5.7c0 2.3-.8 4.6-.8 6.5h-.4c.4-2.2.8-4.5 1.2-6.5 0-.3 0-.3 0 0zm0-11.1c-1.5 1.9-2.7 3.8-3.8 5.8h-.4c1.1-2.3 2.3-4.3 4.2-5.8 0-.4 0-.4 0 0z"/><path class="error-404-3" d="M444.3 665.1c.8 1.5.8 3.8 1.2 5.8h-.4c0-1.2 0-2.3-.4-3.1-.4-1.2-.4-1.9-.4-2.7zm2.7 6.1c-1.2 1.9-1.9 3.8-2.7 5.8.4-1.9 1.5-4.2 2.7-5.8zm-2.7 5.8c-.4-1.2-.8-2.7-1.5-3.8.7 1.1 1.1 2.6 1.5 3.8 0 .4 0 .4 0 0z"/><path class="error-404-7" d="M432.4 689.3s-.4.4 0 0zm3.8-3.9c-3.8-4.2-8.8-7.7-14.2-9.2-5.4-1.5-11.9-1.2-16.5 2.3 6.9 7.3 16.9 11.1 26.9 10.8 1.5 0 5.8 0 6.9-.4.4-.4-.8-1.2-1.5-2.3 0-.4-1.2-.8-1.6-1.2z"/><g class="error-404-2"><path class="error-404-3" d="M437.8 686.6c-.4-.4-1.2-.8-1.5-1.2-3.8-4.2-8.8-7.7-14.2-9.2-2.7-.8-5.4-1.2-8.1-.8 3.1 0 6.1.8 9.2 2.3 5 2.7 8.8 6.5 11.9 11.5 1.5 0 3.5 0 4.2-.8.4.1-.8-1-1.5-1.8z"/></g><path class="error-404-7" d="M441.2 677c.8 2.3 1.9 5.8.8 8.1-.8 1.9-2.3 4.2-3.8 3.8-1.5-1.9-4.6-5.8-6.5-7.3-1.5-1.2-3.8-2.7-5.4-3.8-3.8-3.5-5.4-8.1-7.3-12.7 3.8.4 7.7 1.2 11.5 2.3 2.3.8 5 1.5 6.9 3.5 1.5 1.1 2.7 3.4 3.8 6.1z"/><path class="error-404-4" d="M432.8 681.6c-1.2-1.5-3.5-3.5-4.6-5-2.7-3.5-3.5-7.3-4.6-11.5-1.5-.4-3.1-.4-4.6-.8 2.3 4.6 3.5 9.2 7.3 12.7 1.5 1.5 3.8 2.7 5.4 3.8.8.8 1.9 1.9 3.1 3.5-.5-.8-1.3-1.9-2-2.7z"/><path class="error-404-7" d="M443.1 664.7c1.2 3.5 1.2 7.3 1.2 11.1 0 1.5.4 3.8 0 5.4-.4 1.2-1.2 2.3-1.9 3.1-.8.8-1.2 0-1.9-1.2-.4-.8-1.5-2.3-.8-1.9-.8-2.3-1.2-3.5-1.5-5.8-.8-1.5-1.2-3.5-1.5-5-.8-4.2 0-8.8.8-13.1 2.6 2 4.5 4.3 5.6 7.4z"/><path class="error-404-3" d="M408.6 679.3c5 0 9.6 0 14.6 1.2 4.6 1.2 8.8 3.5 12.3 6.1.4 0 .4 0 .4-.4-3.8-2.7-8.1-5-12.3-6.1-5.4-1.2-10-1.2-15-.8zm11.9-13.1c3.8 1.9 7.7 4.2 10.8 7.3 3.5 3.5 5.8 7.3 8.1 11.1 0 0 .4 0 0 0-4.3-8-10.5-14.9-18.9-18.4 0-.3 0 0 0 0zm17.3-6.9c2.7 7.7 5.8 15 3.8 23.4 0 0 .4.4.4 0 1.5-8-.8-16.5-4.2-23.4 0-.4 0 0 0 0z"/><path class="error-404-3" d="M412 682l1.5-1.5c.8-.4 1.2-.8 1.9-1.2-1.1.4-2.6 1.5-3.4 2.7zm3.9 1.9c1.5-2.3 3.5-3.1 6.1-3.5.4 0 0-.4 0-.4-2.3.4-5 1.2-6.1 3.9zm5 .4c1.5-1.2 3.1-3.1 5.4-2.7-2-.4-3.9 1.2-5.4 2.7zm5 2.7c1.5-1.9 3.5-3.5 6.1-2.3 0 0 .4 0 0-.4-2.3-1.2-5 .4-6.1 2.7zm-11.6-10.8c.4 1.5 1.5 2.7 3.1 3.5-1.1-1.2-2.3-1.9-3.1-3.5.4 0 0 0 0 0z"/><path class="error-404-3" d="M419.7 676.6c.8 1.5 1.5 2.7 2.7 3.8 0 0 .4 0 0 0-1.2-1.1-1.9-2.6-2.7-3.8zm4.6 1.5c.4.8.8 1.5 1.2 1.9.4.4.8 1.2 1.5 1.5v-.4c.4 0-.8-.8-.8-.8l-.8-.8c-.3-.2-.7-.6-1.1-1.4zm3.5 2c.8 1.5 2.3 3.1 3.8 4.2 0 0 .4 0 .4-.4-1.5-1.1-2.7-2.3-4.2-3.8zm-5-8.9c2.7 0 5 0 7.7 1.5 0 0 .4 0 0-.4-2.3-1.1-5.4-2.2-7.7-1.1zm4.2 4.6c1.2 0 2.7 0 3.8.4 1.2.4 2.3.8 3.5 1.2 0 0 .4 0 0-.4-2.3-.8-5-1.9-7.3-1.2zm5 4.3c.8 0 1.9 0 2.7.4 1.2.4 1.9.8 2.3 1.5 0 0 .4 0 .4-.4-.8-.8-1.2-1.2-2.3-1.5-.8-.4-1.9-.4-3.1 0 0-.4 0 0 0 0z"/><path class="error-404-3" d="M428.2 668.2c0 1.2.8 1.9.8 3.1.4.8.4 1.5 1.2 1.5-.9-1.2-.9-3.5-2-4.6.3 0 0 0 0 0zm4.2 1.1c.4 2.7 1.2 5.4 1.9 8.1h.4c-.8-2.7-1.5-5.4-2.3-8.1zm4.6 5.8c0 2.3.8 4.6.8 6.9h.4l-1.2-6.9zm0-11.5c1.5 1.9 3.1 3.8 3.8 6.1h.4c-.8-2.3-2.3-4.6-4.2-6.1 0-.4 0 0 0 0zm5.4.3c-.8 1.9-.8 3.8-1.2 5.8h.4c0-1.2 0-2.3.4-3.5 0-.3.4-1.5.4-2.3zm-3.1 6.6c1.2 1.9 1.9 3.8 2.7 5.8 0-2-1.2-4.3-2.7-5.8zm3.1 6.1c.4-1.5.8-2.7 1.9-3.8 0 0 0-.4 0 0-1.2 1.1-1.9 2.3-1.9 3.8z"/><path d="M1778.7 603.3l8.8-8.8c.8-.8 1.5-.8 2.3 0l4.6 4.6c3.8 3.8 5.4 9.6 4.2 15l-2.3 8.4" fill="none" stroke="#191c3c" stroke-width="1.592" stroke-miterlimit="10"/><path class="error-404-9" d="M1742.2 634.4l-.8 6.9-6.5 1.1 1.5-11.5z"/><path class="error-404-9" d="M1785.2 638.6l-1.5 9.6-42.6-6.9 1.1-6.9z"/><path class="error-404-10" d="M1741.4 639l-.3 2.3 42.6 6.9.4-1.9z"/><path class="error-404-9" d="M1752.73 622.878l23.73-23.504 30.259 30.552-23.73 23.503z"/><path class="error-404-3" d="M1758.194 628.202l23.73-23.504.845.853-23.73 23.503zm2.738 2.837l23.73-23.504.845.853-23.73 23.503z"/><path class="error-404-11" d="M1861.899 689.026l10.053-5.584 9.518 17.134-10.053 5.584z"/><path fill="#db3f32" d="M1839.7 592.1v64.5l25 38.4 11.1-5.3-19.9-44.2 5.3-45.7z"/><path class="error-404-11" d="M1832.1 690.4h12.7V710h-12.7z"/><path class="error-404-13" d="M1852.8 644l5-14.2 3.4-30-19.2-6.9-2.3 16.9v46.8l10.4 15.8z"/><path d="M1868.2 574.1l1.2 1.9c.8 1.9 1.2 3.8 1.2 5.8l-.4 12.7c-.4 5.4-1.9 11.1-5 15.7l-7.3 11.5-7.7 22.3-4.6 48.8H1831l3.1-47.2-.8-2.3c-.8-2.3-.8-4.6-.4-6.9l6.5-44.2-4.6-12.3 33.4-5.8z" fill="#de4437"/><path class="error-404-11" d="M1800.2 519.6c0-1.9 0-3.8-.8-5.8-1.2-1.9-3.1-3.5-5-4.6-4.6-2.7-10.4-4.2-15.7-4.6v.4c-.4 3.1 1.2 5.8 2.3 8.8 2.7 5.8 5 12.3 4.6 18.8-.4 6.1-3.5 11.5-6.5 16.5 1.5-1.9 3.5-3.8 5.8-5.8-1.2 3.8-2.7 7.3-4.6 10.8 4.2-2.3 6.5-6.9 8.8-11.1-.4 3.8-1.2 7.3-3.1 10.8 3.1-3.5 5.4-7.3 7.3-11.5.4 3.1-.4 6.5-1.9 9.2 3.1-4.2 6.1-8.4 7.7-13.4 1.1-6.3 1.1-12.4 1.1-18.5z"/><path class="error-404-13" d="M1800.2 519.6c0-1.9 0-3.8-.8-5.8-1.2-1.9-3.1-3.5-5-4.6-4.6-2.7-10.4-4.2-15.7-4.6v.4c-.4 3.1 1.2 5.8 2.3 8.8 1.9 4.6 4.2 9.6 4.6 14.6 2.3 1.9 6.1 1.5 8.1-1.2l1.2-1.5 5.4 2.3c-.1-3.1-.1-5.8-.1-8.4z"/><path class="error-404-11" d="M1792.164 521.915l4.339-10.216 11.32 4.808-4.338 10.216z"/><path class="error-404-13" d="M1800.6 512.6l-3.5 11.2-5.4-1.9 4.7-10.4z"/><path class="error-404-11" d="M1771.4 506.1l5 8.4 1.2 1.2v5.8h3.1l4.2 3.8c2.3 2.3 6.5 1.9 8.4-.8l9.2-13.4-6.5-15.4s-20-6.5-24.6 10.4z"/><linearGradient id="error404_1_" gradientUnits="userSpaceOnUse" x1="1770.583" y1="356.792" x2="1771.038" y2="356.792" gradientTransform="translate(0 149.508)"><stop offset="0" stop-color="#ffc107"/><stop offset="1" stop-color="#de4437"/></linearGradient><path d="M1771 506.5l-.4-.4.4.4z" fill="url(#error404_1_)"/><linearGradient id="error404_2_" gradientUnits="userSpaceOnUse" x1="1771.038" y1="357.492" x2="1772.118" y2="357.492" gradientTransform="translate(0 149.508)"><stop offset="0" stop-color="#ffc107"/><stop offset="1" stop-color="#de4437"/></linearGradient><path d="M1772.2 507.6l-1.2-1.2c.4.5.8.9 1.2 1.2z" fill="url(#error404_2_)"/><linearGradient id="error404_3_" gradientUnits="userSpaceOnUse" x1="1770.153" y1="352.939" x2="1829.364" y2="352.939" gradientTransform="translate(0 149.508)"><stop offset="0" stop-color="#ffc107"/><stop offset="1" stop-color="#de4437"/></linearGradient><path d="M1825.9 511.9c-3.5-2.7-8.8-2.7-11.1-6.5-.4-.8-.8-1.9-1.5-2.7-1.9-1.9-5.4-1.5-7.3-3.8-.8-1.2-.8-2.3-1.2-3.5-.8-1.9-1.9-3.5-3.5-4.6-1.2-.8-2.7-1.5-4.2-1.9-1.5-.8-3.1-1.2-4.6-1.9-1.5-.8-3.1-1.2-4.6-1.5-2.3-.4-4.6.4-6.5 1.2-1.2.4-2.3.8-3.1 1.2-3.1 1.9-4.6 5.4-5.8 8.4-1.2 2.3-2.3 5-1.9 7.7 0 .8.4 1.5.8 1.9 1.9 1.5 4.6 1.2 6.9.8s5-1.2 7.3-.8c1.9.4 3.8.8 5.8.8s3.5 1.5 4.6 3.1c1.2 1.5 2.3 3.1 4.2 4.2 1.2.8 2.3 1.2 3.5 1.2 1.2.4 2.3.4 3.5.4 1.9 0 3.5-1.2 5.4-1.5 1.9-.8 3.5-1.2 5.4-1.5h2.7c1.2.4 2.3 1.2 3.1 1.9 1.2.8 2.3 1.9 3.5 2.7.8.8 2.3 1.2 2.7 2.3-.2-2.6-1.8-6.1-4.1-7.6z" fill="url(#error404_3_)"/><path class="error-404-13" d="M1870.5 581.8c0-1.2 0-2.3-.4-3.5l-1.2-3.1-.8-1.5-33 5.8 3.1 8.4 32.3-1.9v-4.2z"/><path class="error-404-18" d="M1804.8 515.3l9.6-2.7h5c3.8 0 7.7 1.2 10.8 3.8l15 12.3c5.4 4.6 9.6 10 12.7 16.5l14.6 38-36.5 5.4-15.7-47.2-13.4-7.3-3.8-7.3 1.7-11.5z"/><path class="error-404-11" d="M1809.4 719.6l.4-1.2c1.2-2.3 3.1-4.6 5.4-5.8l10-3.5 6.5-4.2v3.5h7.7l3.1-1.9h2.3v13.1h-35.4z"/><path class="error-404-3" d="M1808.6 719.6h38v1.9h-38z"/><path class="error-404-11" d="M1856.3 721.5v-1.9c.4-2.7.4-2.7 1.9-4.6l6.5-6.9 3.8-6.1 1.5 3.1 6.1-3.5 1.9-2.7 1.9-.8 5.4 10.8-25.3 12.7-3.7-.1z"/><path class="error-404-3" d="M1862.998 719.689l23.984-12.18.86 1.694-23.983 12.18z"/><path class="error-404-3" d="M1856.3 721.5h7.6l2.7-1.9h-10.3z"/><path class="error-404-18" d="M1812.9 714.2h25V713H1814c0 .5-.4.9-1.1 1.2zm5.7-3h26.1V710h-23zm62.2-11.2l-17.2 9.2-2 2.4 19.6-10.8zm-4.2 5.4l-18.8 10c-.4.8-.8 1.2-1.2 1.5l20-10.8v-.7z"/><path d="M1867.4 602.5c-1.5 5.4-4.6 9.2-10 11.5-1.2.4-1.9 2.3-1.2 3.5-.8.4-1.5.8-2.3 1.2-1.5.8.8 1.5 2.3 1.9 3.1.4-1.5 3.1-1.9 5-.4 2.3-1.5 4.6-1.9 6.9s-.4 4.2 0 6.1l5.8-16.9 7.3-11.5c1.9-2.7 3.1-5.8 3.8-9.2-.8 0-1.5.7-1.9 1.5zm-16.9 40.7c-1.5 0-3.1-.4-4.2-.8-2.7-.8-.4 1.9 2.3 3.1.8.4-2.3 1.5-1.5 1.9 0 0-2.3 1.2-2.3 1.5-1.9 1.2.8 2.3 2.7 2.7-.4.4-.4.8-.8 1.5-1.2 3.5.4 9.2.8 12.7 0 .8.4 1.2.8 1.5l2.3-23-.1-1.1z" fill="#41446b" opacity=".3"/><path class="error-404-21" d="M1834.8 567.6c-.8 0-3.1-.8-3.8-.8.4-.4 2.3-1.9 1.9-2.3-3.5-.8-5.8-3.1-6.1-6.9 0-.8-.8-1.2-1.5-.8l2.7 7.7c.4.4 1.2.8 1.5.8 0 0-.4 0-.4.4-.4 0-.4.4-.4.4l.4 1.5h.8c-.4 0-.4.4-.4.8l.4 1.2s1.9 4.6 2.3 6.9l3.1 8.8c0-3.8-.4-8.1-1.2-11.9-.4-1.5-.4-3.1-1.2-3.8 1.2-.4 2.3-.4 3.5-.8.7-.9-.5-1.2-1.6-1.2z"/><path class="error-404-11" d="M1814.8 554.9l1.9 14.6-18.8 24.2-6.1-.8-5.8 3.1-1.5 2.7.8 6.9 11.1 1.2 6.1-7.3 25.3-23.4c.8-.8 1.2-1.9 1.2-3.1l-1.9-19.6-12.3 1.5z"/><path class="error-404-13" d="M1827.5 553l-12.7 1.9.4 1.5 12.3-1.5z"/><path class="error-404-18" d="M1828.6 533.4l-2.3 6.1 2.3 13.5-15.7 1.9-6.2-21.1 2.7-7z"/><path class="error-404-21" d="M1827.1 550.7c-.8-3.8-.4-6.5-1.5-10.4-.4-1.9-.8-2.3-1.5-2.7.8-.4.8-1.2.4-1.5 1.2-.8 1.2-2.3 2.3-3.1s.8-1.2-.4-.8c-1.5.8-3.1 1.5-4.2 2.7-.4.4-.8 1.2-.4 1.5-.4 0 0 1.2-.4 1.2-.8.4-1.2.8-.4 1.2 2.3 1.2 2.7 3.5 3.1 5.8.8 2.7 1.2 5.4 1.9 8.1.7 1.4 1.5-.9 1.1-2z"/><path class="error-404-22" d="M1693.4 673.2s-.7.7 0 0zm8.5-8.1c-8.8-9.2-19.2-16.9-31.5-20-11.9-3.5-25.7-2.3-36.5 4.6 15 16.1 37.2 25 59.5 23.8 3.1.4 12.3.4 15-1.2.8-.4-1.5-2.7-3.1-4.6-.3-.7-2.6-2.2-3.4-2.6z"/><g class="error-404-2"><path class="error-404-3" d="M1705.3 667.4c-.8-.8-2.7-1.9-3.1-2.3-8.8-9.2-19.2-16.9-31.5-20-5.8-1.5-11.9-2.3-18-1.5 6.9.4 13.8 2.3 20 5.4 11.1 5.8 19.6 14.6 26.5 25 3.8 0 7.7-.4 9.2-1.2.8-1.2-1.1-3.5-3.1-5.4z"/></g><path class="error-404-22" d="M1712.3 645.9c1.9 5 4.2 12.7 1.9 17.7-1.5 3.8-4.6 9.6-8.4 8.8-3.1-4.2-10-13.1-14.2-16.1-3.5-2.7-8.8-5.8-12.3-8.8-8.4-7.7-11.5-18-16.5-28.4 8.4.8 16.9 2.3 25.3 4.6 5.4 1.5 10.8 3.5 15 7.3 4.9 3.8 7.2 9.5 9.2 14.9z"/><path class="error-404-4" d="M1694.2 656.3c-3.1-3.5-7.7-7.3-10.8-10.8-5.8-7.7-7.7-16.1-10-25.3-3.5-.8-6.9-1.2-10.8-1.5 4.6 10.4 8.1 20.7 16.5 28.4 3.1 3.1 8.8 6.1 12.3 8.8 1.9 1.5 4.6 4.6 6.9 7.3-1-2.7-2.6-5.4-4.1-6.9z"/><path class="error-404-22" d="M1716.9 619c3.1 7.7 2.7 16.5 2.7 24.6 0 3.1.8 8.4 0 11.5-.8 2.7-2.3 5-3.8 7.3-1.5 1.9-3.1-.4-4.2-2.3-1.2-1.9-3.1-4.6-2.3-4.2-1.5-4.6-2.3-7.7-3.5-12.7-1.2-3.8-2.3-7.7-3.1-11.5-1.5-9.6.4-19.2 2.3-28.8 5.3 4.2 9.2 10 11.9 16.1z"/><path class="error-404-5" d="M1640.4 651.3c10.8-.4 21.5 0 32.3 3.1 10 2.7 19.2 7.7 27.3 13.8.4.4.8-.4.4-.8-8.1-6.1-17.7-10.8-27.6-13.8-10.8-3.1-21.6-3.1-32.4-2.3-.3-.4-.3 0 0 0zm26.2-29.2c8.8 4.2 16.9 9.6 23.8 16.5 7.7 7.3 12.7 16.1 18 25 0 .4.8 0 .4-.4-9.2-18.1-23-33.4-42.2-41.1 0-.4 0 0 0 0zm38.7-15.4c5.8 16.9 12.3 33.4 8.4 51.8 0 .4.4.8.8 0 3.5-17.2-1.5-36-9.2-51.8z"/><path class="error-404-5" d="M1648.1 657.4c1.2-1.2 2.3-2.3 3.8-3.5s2.7-1.9 4.2-2.7v-.4c-3 1.2-6.1 3.9-8 6.6zm8.9 4.2c3.1-5.4 7.7-7.3 13.4-7.7.4 0 .4-.8 0-.8-5.8.9-11.5 2.8-13.4 8.5zm11.1.8c3.5-2.7 6.9-6.9 11.9-5.8.4 0 .4-.4 0-.4-5-1.1-8.8 3.1-11.9 6.2-.4 0-.4 0 0 0zm10.7 5.8c3.1-4.2 8.1-7.7 13.4-5 .4 0 .8-.4.4-.4-5.7-3.1-11.1.4-13.8 5.4-.3 0 0 0 0 0zm-25.3-23.8c.8 3.5 3.8 5.8 6.5 7.7.4 0 .4-.4.4-.4-2.7-2-5.7-3.9-6.9-7.3.4-.4 0 0 0 0zm11.9.7c1.2 3.5 3.5 6.1 6.1 8.8.4.4.8 0 .4-.4-3-2.6-5-5.3-6.5-8.4 0 0-.4 0 0 0z"/><path class="error-404-5" d="M1675 649c.8 1.5 1.5 3.1 2.3 4.6.8 1.2 1.9 3.1 3.1 3.5h.4v-.4h-.4v.4c.4 0-1.2-1.9-1.2-1.9-.4-.8-.8-1.2-1.5-1.5-.8-2.1-1.9-3.6-2.7-4.7zm8.1 3.8c2.3 3.8 5.4 6.9 8.8 9.6.4.4.8-.4.8-.8-3.9-2.3-6.6-5.7-9.6-8.8zm-11.2-19.2c6.1-.4 11.5 0 16.5 3.1.4.4.8-.4.4-.8-4.6-3.1-11.5-5-16.9-3.1-.3.4-.3.8 0 .8zm9.3 10c3.1 0 5.8 0 8.4.8 2.7.8 5 1.5 7.7 2.3.4 0 .4-.4 0-.8-5-1.5-10.8-3.9-16.1-2.3zm11.5 8.8c1.9 0 4.2.4 6.1.8 2.3.4 3.8 1.5 5.4 3.5.4.4.8 0 .4-.4-1.5-1.5-2.7-2.7-5-3.5-2.3-.4-4.6-.8-6.9-.4z"/><path class="error-404-5" d="M1684.2 626.7c0 2.3 1.2 4.6 2.3 6.5.8 1.2 1.2 3.5 2.7 3.8 0 0 .4 0 0-.4-2.7-2.2-2.7-6.8-5-9.9.4-.4 0-.4 0 0zm9.2 2.3c.8 6.1 2.3 11.9 4.6 17.7 0 .4.8 0 .4 0-2.3-5.8-3.4-11.6-5-17.7zm10 13c0 5 1.2 10.4 2.3 15.4 0 .4.8.4.8 0-1.5-5.4-2.3-10.4-3.1-15.4 0-.3 0-.3 0 0zm0-25.7c3.8 4.2 6.5 8.4 8.8 13.4.4.4.8 0 .8-.4-2.3-4.9-5.4-9.1-9.6-13 0-.4 0 0 0 0zm11.9 1.2c-1.9 3.8-2.3 8.8-2.3 13.1 0 .4.8.4.8 0 0-2.3.4-4.6.8-7.3 0-2 .7-3.9.7-5.8.4-.4 0-.4 0 0zm-6.5 14.6c2.7 4.2 4.6 8.4 6.1 13.1h.4c-.7-4.7-3.4-9.7-6.5-13.1 0-.4-.4 0 0 0zm6.5 13.4c1.2-3.1 2.3-6.1 3.8-8.8 0-.4-.4-.4-.4-.4-1.5 2.7-3 5.7-3.4 9.2z"/><path d="M0 840.6s400.5-248.4 678.9-141.7 654.3 60.3 654.3 60.3v311H0V840.6z" fill="#d4dee8"/><linearGradient id="error404_4_" gradientUnits="userSpaceOnUse" x1="0" y1="642.771" x2="1920" y2="642.771" gradientTransform="translate(0 149.508)"><stop offset="0" stop-color="#dae1e9"/><stop offset="1" stop-color="#f0f1f3"/></linearGradient><path d="M0 654.7s255.7 194.7 743 19.2c108.3-39.2 215.4-81.4 324.1-119.8 67.2-23.8 139-41.1 210.8-39.2 70.7 2.3 139.8 21.9 204.7 49.5 36.9 16.1 72.6 34.9 107.1 55.3 33 19.6 64.1 43 99.8 58 31.9 13.1 65.3 21.1 99.5 25.3 25 3.1 50.3 4.6 75.3 5.4 18.4.4 37.2.4 55.7.4v361H0V654.7z" fill="url(#error404_4_)"/><path class="error-404-25" d="M1425.8 799.9l-17.7-.4-1.5-1.2h-.4l88.3-49.9 4.6-1.9h-.8c1.5-.4 2.7-.8 3.5-1.2l16.1-8.4 5-2.7 21.9-6.9-17.3 11.9c-.4.8.8 1.2 2.7 1.5 2.7.4 8.4 0 12.3-1.2l43.4-10.8h-1.5l2.7-.8 43.4-5.4c-.8-.4-3.5-.4-6.5-.4l-8.4 1.2h-1.9c-1.5 0-3.8 0-5.8.4l-4.2.4-12.3.8c-3.5.4-6.9.8-9.6 1.5l-5.8 1.5h.8-1.9l-19.6 4.2 16.9-8.8c3.1-1.5 2.7-3.1-.8-3.8l-19.6-4.2c5-1.2 10-2.7 12.7-3.5 1.5-.4 1.9-.8 2.7-1.5l3.1-.4s6.9-1.5 7.3-2.3v-.4c2.7-1.2 4.6-1.9 7.3-3.1.8-.4 1.9-.8 2.3-1.2s.4-.4.4-.8.4-1.2.4-1.5c.4-.8-1.9-.8-4.2-1.2-2.3-.4-3.8-.8-6.5-.8-1.9 0-4.2 0-6.1.4-.8 0-1.9.4-2.7.4h-3.8c-3.1 0-7.3.8-10 1.5-.4 0-.8.4-1.2.4-.4 0-1.2 0-1.5.4-6.1 1.2-7.7 2.7-9.6 3.8-.8.4-1.9.8-2.3 1.5-1.5 0-3.1.4-3.1.4-3.8 1.2-3.5 2.3-3.5 2.3l2.3.4c-.4 0-.4.4-.8.4s-.8.4-1.2.4c-1.9.8-2.7 1.5-3.1 1.9l-3.5 1.5-41.1 4.6c-7.3.8-14.2 2.3-18.4 3.8l-22.3 8.8-.4-4.2h-1.9l1.2-1.5c.4-.8-.4-1.2-2.7-1.5l-8.8-.8-1.9-.4c-1.2-.4-2.7-.4-4.6-.4h-2.7l-4.2-1.2c-1.5-.4-4.6-.4-7.3.4l20 5.4-.8.8h-2.3l-5.4 10.8c-.4 1.2 3.1 1.5 8.1 1.2 3.1-.4 6.5-.8 9.6-1.5l26.5-8.8-5 2.3-4.2 1.9-2.3.8-15 6.1-8.4 3.5c-.8.4-1.5.8-1.2 1.2l-3.5 1.5-76.8 27.6-51.1 22.7h-2.3l-5.8 1.2-20.4.4c-5.4.4-6.5.8-10.4 1.9l-1.2.4h39.2l5-.8-1.9.8h13.1l8.1-3.5h-.8l23.4-9.6 25.3-10.4 67.2-20.4-.4.4-.4.4-25.7 20.4-31.1 19.2h-.4l-8.1 3.5h13.1l1.9-.8.8.8h39.2l.4-.4c1.5-.6 1.1-.6-2.3-1z"/><path class="error-404-26" d="M1305.6 565.6l-17.3 122.1-.4 99.5h26.1l5.4-86.8 24.6-87.9 22.3 89.8 13.4 84.9h27.7l-26.9-221.6z"/><path id="XMLID_16_" class="error-404-27" d="M1286.4 786l-4.2 4.2-21.1 2.3c-5 1.5-5.8 2.7-7.3 7.7l-.4 1.2h43.8l3.1-3.8v3.8h14.6v-15.7h-11.5l-17 .3z"/><path id="XMLID_15_" class="error-404-27" d="M1407.7 786l4.2 4.2 21.1 2.3c5 1.5 5.8 2.7 7.3 7.7l.4 1.2H1397l-3.1-3.8v3.8h-14.6v-15.7h11.5l16.9.3z"/><path class="error-404-28" d="M1333.2 425.1l-29.6 16.5 2.7 69.9-2.3 45.7c-.4 4.6 3.5 8.4 8.1 8.4h61.1c5 0 8.4-4.2 8.1-8.8l-3.8-47.2 15-66-33-18.4-26.3-.1z"/><path class="error-404-11" d="M1359.4 426.2l-13.1 23.8-13.1-23.8V409h26.2z"/><path class="error-404-29" d="M1370.9 373.6c-.4-1.2-.8-2.3-1.2-3.1-1.2-1.9-2.3-4.2-3.1-6.1-1.9-3.8-3.8-3.1-7.3-4.2-3.1-1.2-6.1-3.1-9.6-3.5-2.3 0-4.2.8-6.1 1.5-.8.4-1.5.8-2.3 1.2-1.5.4-3.1 0-4.6 0-3.5 0-6.9 2.7-7.7 6.1 0 .4-.4 1.2-.4 1.5l-1.2 1.2c-4.6 4.2-1.9 11.5-1.2 16.9.4 3.1 0 6.1 2.7 8.4l-1.2-.4c3.1 3.1 6.9 4.6 11.1 5.4s8.4.8 12.7.8h15c.8 0 1.9 0 2.7-.8s1.2-1.9 1.2-3.1c.8-5.8.4-11.5.8-17.3-.3-1.8.1-3.3-.3-4.5z"/><path class="error-404-13" d="M1333.2 418.9l3.8 6.5c2.3 4.2 6.9 6.9 11.9 6.9 4.2 0 8.4-1.9 10.8-5.4v-17.7h-26.5v9.7z"/><path class="error-404-11" d="M1330.9 382.5v20c0 4.6 1.2 8.8 3.5 13.1l3.8 6.5c2.3 4.2 6.9 6.9 11.9 6.9 4.6 0 9.2-2.3 11.5-6.5l.8-1.2c2.3-3.8 3.8-8.8 3.8-13.4V371h-34.6l-.7 11.5z"/><path class="error-404-11" d="M1331.3 405.5l-3.8-2.3s-4.2-6.1-2.3-10.4c0 0 1.5-3.5 4.2-1.9l3.8 3.8-1.9 10.8zm33.8 0l3.8-2.3s4.2-6.1 2.3-10.4c0 0-1.5-3.5-4.2-1.9l-3.8 3.8 1.9 10.8z"/><path class="error-404-29" d="M1329.8 385.9c.4 3.1.8 6.1.8 9.6 0 1.2-.4 5 1.9 3.8.8-.4 1.2-1.2 1.2-1.9.4-3.1-2.3-5.8-.8-8.4 1.2-1.9 3.5-3.5 3.8-5.8.4-1.5-.4-3.5-.8-5 0-1.2 0-2.7.8-3.8.8-1.2 2.3-1.5 3.5-1.2s1.9 1.5 3.1 2.3c2.3 1.9 5.4 2.7 8.1 1.5 1.5-.8 3.1-1.9 4.6-2.7 1.5-1.2 3.5-1.5 5-1.2 2.7.8 3.5 3.5 4.2 6.1.4 2.7 1.2 5.8.8 8.4-.4 2.3-1.5 4.2-1.9 6.5 0 .4-.4 1.2-.4 1.5 0 1.2.8 1.9 1.2 2.7 0 0 0 .4.4.4s.4 0 .8-.4c1.5-1.2 1.9-3.5 2.3-5.4.4-2.7 1.5-4.2.8-6.9-1.2-5.4.4-10.8-.8-16.1 0-.4-.4-1.2-.4-1.5-.4-.4-1.2-.8-1.5-1.2-7.7-2.7-15.7-2.3-23.8-1.9-2.7 0-5.8.4-8.1 1.9-2.7 1.9-4.2 5-5 8.4-.6 3.4-.2 6.9.2 10.3z"/><path class="error-404-11" d="M1260.7 484.6l-1.2-3.5-35.3-22.7c1.9-1.9 5.4-2.3 7.7-.8l6.9 4.2 2.7-.4c1.9-.4 4.2 0 6.1 1.2l3.5 2.3 11.9 3.5c3.1.8 5.8 3.5 6.9 6.5l2.7 6.5-11.9 3.2zm171.2 0l1.2-3.5 35.3-22.7c-1.9-1.9-5.4-2.3-7.7-.8l-6.9 4.2-2.7-.4c-1.9-.4-4.2 0-6.1 1.2l-3.5 2.3-11.9 3.5c-3.1.8-5.8 3.5-6.9 6.5l-2.7 6.5 11.9 3.2z"/><path class="error-404-28" d="M1333.2 425.1l-34.9 19.6c-6.1 3.5-10.4 9.6-10.8 16.9l-3.1 38-11.1-18.4-15 4.6 21.1 47.2c1.9 4.2 7.3 6.1 11.5 4.2 2.7-1.5 5.4-3.5 6.9-6.9l11.1-56.1 24.2-35.7v-13.4h.1zm26.2 0l34.9 19.6c6.1 3.5 10.4 9.6 10.8 16.9l3.1 38 11.1-18.4 15 4.6-21.1 47.2c-1.9 4.2-7.3 6.1-11.5 4.2-2.7-1.5-5.4-3.5-6.9-6.9l-11.1-56.1-24.2-35.7v-13.4h-.1z"/><path class="error-404-27" d="M1305.2 561.8h76v11.5h-76z"/><path class="error-404-11" d="M1335.9 561.8h13.1v11.5h-13.1z"/><path d="M1377.8 509.6l6.9-30.7c-2.3 3.5-4.2 7.3-6.1 11.1-.8 1.5 0 3.1 1.2 3.8-1.5 3.5-7.3 9.2-9.6 11.5-1.9 1.9 3.5 2.3 5.8 1.5h.4c-1.5 2.7-3.1 5.4-5 7.7-1.2 1.5-4.2 3.8-2.3 3.5 1.5-.4 6.5.8 8.1.4-.8 1.9-1.2 3.5-1.9 5.4-.8 1.9.4 3.8 1.9 4.2-1.2 0 .4 10.8.8 11.9.8 3.5 1.5 5.8 3.1 8.1l-1.5-26.5v-.4l-1.8-11.5zm-64.9 6.9c-6.1-3.1-7.7-6.1-5.4-9.2 2.3.8 5.8 0 8.1.8 1.5.4.8-1.5-4.2-1.9.8 0-5.4-7.7-3.1-7.7 1.2 0 1.9-1.5 1.5-2.7-2.7-4.6-3.1-11.1-4.6-16.5l.8 23.4c.4.4 1.2.8 1.5 1.5-.4 0-1.2-.4-1.5-.4l.4 8.1v2.7c.4.4.4.8.8 1.2h-.8l-1.5 35.3c.4-.4.8-.8.8-1.2 0-7.3 2.3-13.4 3.1-20.4.4-2.3-1.5-10.8 3.5-9.6 1 0 2.1-2.7.6-3.4z" opacity=".17" fill="#191c3c"/><path class="error-404-18" d="M1333.2 425.1l-7.6 4.6 8.8 32.3 11.9-12z"/><path class="error-404-18" d="M1359.4 425.1l8 4.6-9.2 32.3-11.9-12z"/><circle class="error-404-3" cx="1346.3" cy="461.6" r="1.5"/><path class="error-404-3" d="M1347.1 479.2c0 .8-.8 1.5-1.5 1.5-.8 0-1.5-.8-1.5-1.5 0-.8.8-1.5 1.5-1.5s1.5.8 1.5 1.5zm-.8 17.3c0 .8-.8 1.5-1.5 1.5-.8 0-1.5-.8-1.5-1.5 0-.8.8-1.5 1.5-1.5 1.1.4 1.5.7 1.5 1.5z"/><circle class="error-404-3" cx="1344.4" cy="514.2" r="1.5"/><circle class="error-404-3" cx="1343.6" cy="531.8" r="1.5"/><path class="error-404-3" d="M1344.4 549.1c0 .8-.8 1.5-1.5 1.5-.8 0-1.5-.8-1.5-1.5s.8-1.5 1.5-1.5c1.1.4 1.5.8 1.5 1.5z"/><g class="error-404-31"><path class="error-404-3" d="M1319.4 700.4l-2.7 44.5c-.4.4-.8.4-1.2.8-.4-13.8-2.7-27.6-6.5-40.7 2.3-.8 4.6-2.3 6.1-4.2-1.5 0-3.1-.4-4.6-.4 1.2-.8 2.3-1.9 2.7-3.1h-10.4c9.6-2.3 16.9-11.5 16.5-21.1-1.2.4-2.7 0-3.8-.8 3.5-5.4 6.9-10.8 10.4-16.5.8-.8 1.2-1.9.8-3.1-1.9 1.5-3.8 2.7-6.1 3.1 2.7-3.1 5.4-6.5 6.5-10.4 1.5-4.6 1.2-9.6 1.9-14.2 1.5-8.8 6.9-16.5 14.6-20.7l-24.2 86.8zm25-85.2v-1.9l-.4-.4.4 2.3z"/></g><g class="error-404-31"><path class="error-404-3" d="M1406.6 780.7l-25.3-210.8h-.8l-.4 1.2c-1.2 13.8-1.2 27.6 1.2 41.1 1.2 8.1 3.1 16.1 1.2 24.2-.4 2.7-1.5 4.6-2.7 7.3-1.2 3.1-1.5 6.9-1.9 10-.8 3.5-1.2 6.5-1.5 10-.4 3.5-1.2 6.9-1.2 10.8 0 .4 13.4-2.7 15-4.2-1.2 6.1-3.5 12.7-5.8 18.4 1.5-3.1 3.5-6.1 6.1-8.4-2.3 4.2-3.5 8.8-4.2 13.8 2.7-.4 5.4-.8 8.4-.8-2.3 5.4-4.6 10.4-7.3 15.7 3.1-1.5 5.8-3.1 8.8-4.6-.8 13.1-1.5 26.1-2.3 38.8-.4 5-.4 10 1.5 14.6 1.5 3.5 3.8 6.1 5.8 9.2 3.1 5.4 4.6 11.9 3.8 18 .4-1.3.8-2.8 1.6-4.3z"/></g><path class="error-404-29" d="M1340.9 410.9c-.4 1.2-.8 1.9-1.2 3.1-.4.8-1.5 1.9-2.7 1.5s-1.5-1.9-1.5-3.1c-.4-3.5.4-6.5-.8-10-.4-.8-.8-1.5-.8-2.7V397c0-.8-.8-1.5-1.5-1.5-.8 0-1.5.8-1.5 1.5v2.3c.8 3.8 1.2 7.3.8 10.8-.4 3.8 1.2 7.3 2.3 10.8.4 1.2.8 2.3 1.5 3.5 1.5 2.7 4.6 4.6 7.7 5.4s6.5.8 9.6.8c1.9 0 4.2 0 6.1-.8 5.8-2.3 7.3-13.1 8.1-18.4.4-2.3-.4-4.2-.4-6.5-.4-2.7.8-5.8 1.2-8.4 0-.4 0-.8-.4-1.2s-1.2-.4-1.2-.8c-.8.8-1.9 1.9-2.3 3.1v1.5c0 2.3 0 4.6-.4 6.5-.8 2.7-1.5 5-1.9 7.7 0 1.2-.4 2.7-1.9 3.1-.8.4-1.9-.4-2.3-1.5-.4-.8-.4-1.9-.4-3.1s0-1.9-.8-2.7c-.8-1.2-2.3-1.2-3.8-1.2-3.4-.1-9.2-2-11.5 3z"/><g id="Clouds"><path id="XMLID_198_" class="error-404-18" d="M435.1 274.2c-2.3-6.5-8.4-11.5-15.7-11.5-3.1 0-6.1.8-8.4 2.7-1.5-10.4-10.4-18.4-21.5-18.4-9.6 0-18 6.5-20.7 15.4-1.2-.4-2.7-.4-3.8-.4-7.3 0-13.4 5.4-14.6 12.7h-2.3c-6.1 0-11.1 5-11.1 11.1v.8c0 6.1 5 11.1 11.1 11.1h87.2c6.1 0 11.1-5 11.1-11.1v-.8c-.2-6.6-5.2-11.6-11.3-11.6z"/><path id="XMLID_181_" class="error-404-18" d="M228.5 215c-1.5-4.6-6.1-8.1-11.1-8.1-2.3 0-4.2.8-6.1 1.9-1.2-7.3-7.7-13.1-15.4-13.1-6.9 0-12.7 4.6-14.6 10.8-.8-.4-1.9-.4-2.7-.4-5.4 0-9.6 3.8-10.4 8.8h-1.9c-4.2 0-8.1 3.5-8.1 8.1v.8c0 4.2 3.5 8.1 8.1 8.1h62.2c4.2 0 8.1-3.5 8.1-8.1v-.8c-.4-4.5-3.9-8-8.1-8z"/><path id="XMLID_190_" class="error-404-18" d="M549.5 188.2c-1.9-5.8-7.3-10-13.4-10-2.7 0-5.4.8-7.3 2.3-1.5-9.2-9.2-16.1-18.4-16.1-8.4 0-15.7 5.8-18 13.4-1.2-.4-2.3-.4-3.5-.4-6.5 0-11.9 4.6-12.7 10.8h-1.9c-5.4 0-9.6 4.2-9.6 9.6v.8c0 5.4 4.2 9.6 9.6 9.6h76c5.4 0 9.6-4.2 9.6-9.6v-.8c-.8-5.4-5-9.6-10.4-9.6z"/><path id="XMLID_178_" class="error-404-18" d="M550.7 324.5c-1.2-3.1-3.8-5-6.9-5-1.5 0-2.7.4-3.8 1.2-.8-4.6-4.6-8.4-9.6-8.4-4.2 0-8.1 3.1-9.2 6.9-.4 0-1.2-.4-1.9-.4-3.5 0-6.1 2.3-6.5 5.8h-1.2c-2.7 0-5 2.3-5 5v.4c0 2.7 2.3 5 5 5H551c2.7 0 5-2.3 5-5v-.4c-.4-2.8-2.7-5.1-5.3-5.1z"/><g id="XMLID_141_"><path id="XMLID_151_" class="error-404-32" d="M1405.8 145.2h-.8c-3.1-10.4-12.3-17.7-23.4-17.7-5 0-9.2 1.5-13.1 3.8-2.3-16.1-16.5-28.4-33-28.4-15 0-27.6 10-31.9 23.4-1.9-.4-3.8-.8-6.1-.8-11.5 0-21.1 8.4-22.7 19.6h-3.8c-9.6 0-17.3 7.7-17.3 17.3v1.2c0 9.6 7.7 17.3 17.3 17.3h135.2c9.6 0 17.3-7.7 17.3-17.3v-1.2c-.4-9.6-8.5-17.2-17.7-17.2z"/><path id="XMLID_150_" class="error-404-18" d="M1390.1 149.4h-.8c-2.7-8.8-10.8-15.7-20.7-15.7-4.2 0-8.4 1.2-11.5 3.5-2.3-14.2-14.6-25-29.2-25-13.4 0-24.6 8.8-28.4 20.7-1.5-.4-3.5-.8-5.4-.8-10 0-18.4 7.3-20 17.3h-3.1c-8.4 0-15 6.9-15 15v1.2c0 8.4 6.9 15 15 15h119c8.4 0 15-6.9 15-15v-1.2c.1-8.1-6.9-15-14.9-15z"/></g></g><g id="Plane"><path id="XMLID_196_" class="error-404-18" d="M434.7 203.9h-33l-15.4-30c-1.2-2.3.4-5 3.1-5h11.5c1.2 0 1.9.4 2.7 1.2l31.1 33.8z"/><path id="XMLID_195_" class="error-404-18" d="M434.7 203.9h-33l-15.4-30c-1.2-2.3.4-5 3.1-5h11.5c1.2 0 1.9.4 2.7 1.2l31.1 33.8z"/><path id="XMLID_194_" class="error-404-32" d="M392.8 168.6h-3.5c-2.7 0-4.2 2.7-3.1 5l15.4 30h12.7l-21.1-33.8c0-.1 0-.5-.4-1.2z"/><path id="XMLID_193_" class="error-404-33" d="M434.7 203.9h-33l-15.4-30c-1.2-2.3.4-5 3.1-5h11.5c1.2 0 1.9.4 2.7 1.2l31.1 33.8z"/><path id="XMLID_175_" class="error-404-18" d="M549.1 215.4H546c-2.7-7.7-10-13.1-18.8-13.1H392.8c0 18.4 15 33.4 33.4 33.4h122.9c5 0 9.2-4.2 9.2-9.2v-1.9c0-5-3.8-9.2-9.2-9.2z"/><path id="XMLID_174_" class="error-404-32" d="M549.1 228.1H426.2c-15.7 0-29.2-11.1-32.6-25.7h-1.2c0 18.4 15 33.4 33.4 33.4h122.9c5 0 9.2-4.2 9.2-9.2v-1.9c0-1.2-.4-1.9-.4-3.1-.7 3.8-4.2 6.5-8.4 6.5z"/><path id="XMLID_173_" class="error-404-33" d="M549.1 215.4H546c-2.7-7.7-10-13.1-18.8-13.1H392.8c0 18.4 15 33.4 33.4 33.4h122.9c5 0 9.2-4.2 9.2-9.2v-1.9c0-5-3.8-9.2-9.2-9.2z"/><path id="XMLID_172_" class="error-404-18" d="M431.6 213.1h-38.8c-2.3 0-4.6-1.9-4.6-4.6V207c0-2.3 1.9-4.6 4.6-4.6h38.8c2.3 0 4.6 1.9 4.6 4.6v1.5c-.4 2.7-2.3 4.6-4.6 4.6z"/><path id="XMLID_171_" class="error-404-18" d="M506.9 240h-47.6c-2.3 0-4.6-1.9-4.6-4.6v-3.5c0-2.3 1.9-4.6 4.6-4.6h47.6c2.3 0 4.6 1.9 4.6 4.6v3.5c0 2.3-1.9 4.6-4.6 4.6z"/><path id="XMLID_170_" class="error-404-33" d="M431.6 213.1h-38.8c-2.3 0-4.6-1.9-4.6-4.6V207c0-2.3 1.9-4.6 4.6-4.6h38.8c2.3 0 4.6 1.9 4.6 4.6v1.5c-.4 2.7-2.3 4.6-4.6 4.6z"/><path id="XMLID_169_" class="error-404-33" d="M506.9 240h-47.6c-2.3 0-4.6-1.9-4.6-4.6v-3.5c0-2.3 1.9-4.6 4.6-4.6h47.6c2.3 0 4.6 1.9 4.6 4.6v3.5c0 2.3-1.9 4.6-4.6 4.6z"/><path id="XMLID_167_" class="error-404-34" d="M518.8 213.1h16.9"/><path id="XMLID_166_" class="error-404-34" d="M499.2 213.1h8.4"/><path id="XMLID_4_" class="error-404-34" d="M485.8 213.1h8.4"/><path id="XMLID_3_" class="error-404-34" d="M472.3 213.1h8.1"/><path id="XMLID_2_" class="error-404-34" d="M458.5 213.1h8.4"/><path id="XMLID_1_" class="error-404-34" d="M445.1 213.1h8.4"/></g><g id="Paarachute"><g id="XMLID_893_"><path id="XMLID_906_" class="error-404-32" d="M1756 210.4h7.7v-.4c0-2.7 3.8-7.3 6.1-9.6 2.7-3.1 4.6-7.7 4.6-12.3 0-10.4-8.4-18.4-18.4-18.4v40.7z"/><path id="XMLID_903_" class="error-404-18" d="M1756 210.4h-7.7v-.4c0-2.7-3.8-7.3-6.1-9.6-2.7-3.1-4.6-7.7-4.6-12.3 0-10.4 8.4-18.4 18.4-18.4v40.7z"/><path id="XMLID_902_" class="error-404-18" d="M1756 210.4h4.6v-.4c0-2.7 2.3-7.3 3.5-9.6 1.5-3.1 2.7-7.7 2.7-12.3 0-10.4-4.6-18.4-10.8-18.4v40.7z"/><path id="XMLID_898_" class="error-404-32" d="M1756 210.4h-4.6v-.4c0-2.7-2.3-7.3-3.5-9.6-1.5-3.1-2.7-7.7-2.7-12.3 0-10.4 4.6-18.4 10.8-18.4v40.7z"/></g><g id="XMLID_884_"><path id="XMLID_892_" class="error-404-18" d="M1758.3 235h-3.5c-2.7 0-5-2.3-5-5v-6.5h13.4v6.5c.1 2.7-2.2 5-4.9 5z"/><path id="XMLID_891_" class="error-404-35" d="M1751.4 230v-6.5h-1.9v6.5c0 2.7 2.3 5 5 5h1.9c-2.7 0-5-2.3-5-5z"/><path id="XMLID_890_" class="error-404-35" d="M1760.3 223.5v6.5c0 2.7-2.3 5-5 5h3.1c2.7 0 5-2.3 5-5v-6.5h-3.1z"/><path id="XMLID_889_" opacity=".3" fill="#dae1e9" d="M1749.5 226.6l13.8-2v-1.1h-13.8z"/><path id="XMLID_888_" class="error-404-37" d="M1758.3 235h-3.5c-2.7 0-5-2.3-5-5v-6.5h13.4v6.5c.1 2.7-2.2 5-4.9 5z"/><path id="XMLID_887_" class="error-404-18" d="M1763.7 223.5h-14.6c-.8 0-1.2-.4-1.2-1.2 0-.8.4-1.2 1.2-1.2h14.6c.8 0 1.2.4 1.2 1.2 0 .8-.4 1.2-1.2 1.2z"/><path id="XMLID_885_" class="error-404-37" d="M1763.7 223.5h-14.6c-.8 0-1.2-.4-1.2-1.2 0-.8.4-1.2 1.2-1.2h14.6c.8 0 1.2.4 1.2 1.2 0 .8-.4 1.2-1.2 1.2z"/></g><path id="XMLID_883_" class="error-404-37" d="M1753.7 210v11.2"/><path id="XMLID_882_" class="error-404-37" d="M1758.7 210v11.2"/><path id="XMLID_881_" class="error-404-37" d="M1748.4 210l3.4 11.2"/><path id="XMLID_880_" class="error-404-37" d="M1764.1 210.4l-3.1 10.8"/></g><path class="error-404-1" d="M253.1 782.2s-2 .8 0 0zm16.1-16.1c-16.9-17.7-37.6-32.3-60.7-38.8-23.4-6.9-49.9-4.6-70.3 9.2 29.2 30.7 72.2 48 114.8 45.7 6.1.4 24.2.8 29.2-2.3 1.2-.8-2.7-5.4-6.1-9.2-1.5-1.2-5.8-3.5-6.9-4.6z"/><g class="error-404-2"><path class="error-404-3" d="M275.7 770.7c-1.2-1.2-5.4-3.5-6.1-4.6-16.9-17.7-37.6-32.3-60.7-38.8-11.5-3.1-23.4-4.2-34.9-3.1 13.4.4 26.9 4.2 38.8 10.4 21.1 10.8 38 28.4 51.5 48.4 6.9 0 15.4-.8 18-2.3 1.1-1.9-3.1-6.2-6.6-10z"/></g><path class="error-404-1" d="M289.5 729.2c3.5 9.6 8.1 24.2 3.8 33.8-3.1 7.3-9.2 18.4-16.5 16.9-6.1-8.1-18.8-25-27.3-31.5-6.9-5.4-17.3-11.1-23.8-16.9-16.5-14.6-22.7-34.6-31.9-54.5 16.5 1.5 33 4.6 49.2 9.2 10.4 3.1 21.1 6.9 29.2 14.2 8.5 7.3 13.5 18.1 17.3 28.8z"/><path class="error-404-4" d="M254.2 748.8c-5.8-6.5-15.4-14.2-20.4-20.7-11.1-14.6-15-31.1-18.8-48.8-6.9-1.2-13.4-1.9-20.4-2.7 9.2 20 15.4 39.9 31.9 54.5 6.1 5.8 16.9 11.5 23.8 16.9 3.8 3.1 8.8 8.4 13.4 14.2-3.3-5-6.8-10.3-9.5-13.4z"/><path class="error-404-1" d="M298 676.6c5.8 15.4 5.4 31.9 5.4 48 0 6.1 1.5 16.5 0 22.3-1.2 5-4.6 9.6-7.3 13.8-2.7 3.5-5.8-.8-8.1-4.2-1.9-3.5-5.8-9.2-4.2-8.1-2.7-9.2-4.2-15.4-6.9-24.6-2.3-7.3-4.6-14.6-6.1-21.9-3.1-18.8.4-37.6 4.2-56.1 10.3 8.2 18.4 18.9 23 30.8z"/><path class="error-404-5" d="M150.1 739.2c21.1-.8 41.9 0 62.2 5.8 19.2 5.4 36.9 14.6 53 26.9.8.8 1.5-.8.8-1.2-15.7-11.9-34.2-21.1-53.4-26.5-20.7-5.8-41.1-6.2-62.6-5-.3-.4-.3 0 0 0zm51.1-56.1c16.9 8.1 32.6 18.8 46.1 31.9 14.6 14.2 24.2 31.1 35.3 48 0 .4 1.2 0 .8-.4-18.8-34.9-44.9-64.1-81.8-79.9-.4-.3-.8.1-.4.4zm74.5-29.5c11.1 33 24.2 64.5 16.5 99.8 0 .8.8 1.2 1.2 0 7.3-33.4-3.1-69.5-17.7-99.8 0-.4 0-.4 0 0z"/><path class="error-404-5" d="M165.5 751.1c2.3-2.3 4.6-4.6 6.9-6.5 2.7-1.9 5.4-3.5 8.4-5v-.4c-6.1 1.9-12.2 6.5-15.3 11.9-.4 0-.4 0 0 0zm16.9 8.5c5.8-10.8 14.6-13.8 26.1-15.4.8 0 .8-1.2 0-1.2-11.1 1.6-22.3 5-26.1 16.6zm21.1 1.5c6.9-5.4 13.4-13.4 23-10.8.4 0 .8-.8 0-.8-9.2-2.6-16.8 5.4-23 11.6-.4 0-.4 0 0 0zm20.8 10.7c6.1-8.1 15.4-15.4 25.7-9.6.8 0 1.2-.8.4-.8-10-5.3-20.8 1.2-26.1 10.4-.4 0 0 .4 0 0zm-48.4-46c1.2 6.9 7.3 10.8 12.7 14.6.4 0 .8-.4.4-.8-5.4-3.5-10.8-7.3-13.1-13.8.4 0 0 0 0 0z"/><path class="error-404-5" d="M198.1 727.3c2.3 6.5 6.9 12.3 11.9 16.9.4.4 1.2 0 .8-.8-5.4-4.6-9.2-10-12.7-16.1zM217 735c1.2 3.1 2.7 5.8 4.6 8.4 1.5 1.9 3.8 5.8 6.1 6.5h.8v-.8h-.8v.8c.8 0-2.3-3.5-2.3-3.5-.8-1.2-1.9-1.9-2.7-3.1-1.9-2.9-3.8-5.6-5.7-8.3.3-.4 0-.4 0 0zm15.7 7.7c4.2 6.9 10.8 13.4 16.9 18.4.8.8 1.9-.4 1.2-1.2-6.9-5.4-11.9-11.5-17.7-17.7 0 .1-.8.5-.4.5zM211.2 705c11.9-.8 21.9 0 32.3 6.1.8.4 1.2-.8.8-1.2-9.2-5.8-22.3-9.6-33-5.8-.9.5-.9.9-.1.9zm18 19.6c5.8 0 11.1 0 16.5 1.2 5 1.2 9.6 3.1 14.6 4.6.8 0 .8-.8 0-1.2-10-3.5-21.1-8.1-31.9-5.4l.8.8zm21.9 17.3c3.8 0 8.1.8 11.9 1.2 4.6.8 7.3 3.1 10.4 6.5.4.4 1.2 0 .8-.8-2.7-3.1-5.4-5.4-9.6-6.5-4.6-.8-9.2-1.2-13.5-.4 0-.4 0 0 0 0z"/><path class="error-404-5" d="M235 691.6c0 4.2 2.3 8.4 4.2 12.7 1.2 2.3 1.9 6.9 5.4 7.3 0 0 .4 0 0-.4-5.4-4.6-5.4-13.5-9.6-19.6.4-.4 0-.4 0 0zm17.7 5c1.2 11.9 4.6 23.4 8.8 34.2 0 .4 1.2 0 .8 0-4.3-11.2-6.6-22.3-9.6-34.2zm19.2 24.9c0 10 2.3 20 4.2 30 0 .8 1.2.4 1.2 0-1.9-10-3.1-19.6-4.6-29.6-.4-.7-.8-.7-.8-.4zm.4-49.5c6.9 8.1 12.7 16.5 17.3 26.1.4.8 1.5 0 1.2-.8-4.6-9.6-10.4-18.4-17.7-26.1-.8 0-1.2.4-.8.8z"/><path class="error-404-5" d="M294.9 673.9c-3.5 7.3-4.2 17.3-4.6 25.3 0 .8 1.2.8 1.2 0 0-4.6.8-9.2 1.5-14.2.8-3.8 1.9-7.3 2.3-11.5.4 0-.4 0-.4.4zm-12.7 28.4c5.4 8.1 8.4 16.5 12.3 25.3h.4c-1.1-9.1-6.1-18.7-12.7-25.3 0-.3-.3-.3 0 0zm13.1 25.8c2.3-5.8 4.2-11.5 7.3-16.9 0-.4-.4-.8-.8-.4-2.7 5.4-6.1 11.1-6.5 17.3-.4.3-.4.3 0 0z"/><g id="XMLID_320_"><path opacity=".2" fill="#aab2ba" d="M265.3 776.8l3.1 16.2h47.2l-.3-8.1-44.2-10.8z"/><path id="XMLID_327_" class="error-404-11" d="M297.6 760.3l-16.9-1.1 13.4-15.4z"/><path id="XMLID_326_" class="error-404-11" d="M284.2 775.3l-16.6-1.2 13.1-14.9z"/><path id="XMLID_6_" class="error-404-11" d="M316.8 790.3h-46.1l40-45.3z"/><path id="XMLID_324_" class="error-404-39" d="M316.8 790.3l-32.6-15 13.4-15.4z"/><path id="XMLID_323_" class="error-404-39" d="M267.6 774.1l3.1 16.2 13.1-15z"/><path id="XMLID_5_" class="error-404-39" d="M280.7 759.2l3.5 16.1 13.4-15z"/><path id="XMLID_321_" class="error-404-39" d="M294.1 743.8l3.5 16.1 13.1-14.9z"/></g><path class="error-404-25" d="M1114.8 627.1h-.8c-1.5 0-2.3-.8-2.7-1.5 0-.8.8-1.9 1.5-3.1l3.8-3.8c.8-.4 1.2-1.2 1.9-1.5.4-.4.4-.8.8-1.2 1.2-1.5 3.5-3.1 4.6-5 .4-.4.4-.8.4-1.2-.4-.4-1.5-.4-2.7-.4-1.2.4-1.9.8-2.7 1.2v-.4c-.4 0-.8-.4-1.5 0h-.4c-.4 0-.8.4-.8.4-.4 0-.4-.4-.8-.4-.8-.4-1.9-.4-2.7-.4-3.1-.4-6.5-.4-10.4.4h-1.2l.8-.8c.4-.4 0-.8-.8-.4h-2l-15.7 1.9c-.4 0-1.2.4-1.2.4l-4.2 3.8c-.4.4 0 .8.8.4l9.2.4.8-.4-3.8 3.8c-.8.8-.4 1.2 1.2 1.2h4.2l-2.3 2.3-9.2.8-11.9.8-.4.4-13.4-.4-5.4-10.4 1.5-2.3-.4-2.3 1.5-1.9-.4-1.9c-1.2.4-1.5 1.2-1.5 1.5v.4l-1.5 1.9h-.4v-.8l-3.5-1.9-.4.4c-.4.4-.4.4 0 .8l2.3 1.5v.4l-.4.4-.8-.8-4.6-.8-.8.8 3.1.4 1.5.8-.8.8-5.4-.8v.4l.4.4 3.8.8.4 2.3 1.2 1.2.8 11.5 17.7 1.5-.4.4 7.3 1.5-4.2 3.8c-1.5 1.5-2.3 2.7-3.1 4.2l-.4 1.5-18.4 16.9h.4l-1.2.8-26.1 17.3-5 17.7-1.2 1.2-10 1.9-8.8 1.5h-.4c-.4.4-2.3 2.3 5 1.9.8 0 1.5.4 2.7.4 6.1 0 18.8-.4 18.8-.4 1.2-.4 2.3-1.2 2.7-1.5l.8-.8s0-.4.4-.4c0-.4 0-.4-.4-.8l3.5-3.5h-.8.8s20.4-14.6 22.3-20.7l15.7-12.3.8-.8-.4 1.2c3.5-1.5 6.5-3.1 8.4-5l10.4-10.4c.8 0 1.5-.4 2.3-.4l3.1-1.2 10.8-8.4h1.2l9.2-8.4c.8-.8.4-1.2-.4-1.2l-8.4-2.3 3.1-2.7c.4 0 1.2-.4 1.9-.4 1.5-.4 3.5-1.2 5-1.5-.8.4-1.5.8-1.9 1.2-1.5 1.2-3.1 2.3-2.7 3.5 0 .4.4.8.8.8 1.2.8 2.7 1.2 4.2 1.5h.4c0-.4 0-.8.4-1.2.8.4 1.5.8 2.3 1.2.1 2.7 1.2 2.7 3.2 2.3 0 .4-.4 0 0 0-.4 0 0 0 0 0zm-30.4.7zm-51.4 47.7l-.4 1.2v.4l-3.8 4.2-1.9 2.3c.8-1.5.8-3.1-.4-4.2l6.5-3.9z"/><path d="M1009.5 683.5l-.8 5.4-14.2 6.9-10.8 2.3s.8 4.6 9.2 5 25-.8 25-.8c1.2-1.2 1.5-2.7 1.5-4.2v-1.9c0-1.2-.8-2.3-1.9-2.7v-8.8l-8-1.2z" fill="#e0a546"/><path d="M1019.9 696.2c0-.4 0-.8-.4-1.2-.8.4-2.3 2.7-3.1 2.7-5.4 0-11.5.8-16.1.4-4.6 0-7.3-.4-8.4-1.5l-8.1 1.9s.8 4.6 9.2 5 25-.8 25-.8c1.2-1.2 1.5-2.7 1.5-4.2l.4-2.3z" fill="#19a0ff"/><path class="error-404-11" d="M1000.3 685.4v2.7l-21.1 8.8s-1.2 6.9 11.9 5.4l23-4.6s.8-2.7 1.2-5c.4-1.5-.4-3.1-1.5-3.8l-4.6-4.6-8.9 1.1z"/><path class="error-404-26" d="M1015.3 690.4c-1.2 1.9-2.7 3.1-5 3.8l-8.8 2.7c-11.1 1.2-12.3-2.7-12.3-4.2l-10 4.2s-1.2 6.9 11.9 5.4l23-4.6s.8-2.7 1.2-5c.8-.7.4-1.5 0-2.3z"/><path class="error-404-10" d="M1021.4 593.7l-3.8 37.6c6.9 16.1.4 53.4.4 53.4h-8.4l-5-48-5-13.4 21.8-29.6z"/><path class="error-404-13" d="M1003.8 635.5l13.4-32.6 3.1-2.7.4-.4.8-6.1-22.3 29.6 4.6 12.2zm5.4 49.2h2.3s1.9-23.8-6.5-37.6l4.2 37.6z"/><path class="error-404-29" d="M994.6 580.6l-13.1 59.9 19.2 44.5 9.2-.8s2.3-31.1-10.4-42.6l15.7-38.8 3.1-2.7c2.7-2.3 4.6-5.8 4.6-9.2v-13.4l-28.3 3.1z"/><path class="error-404-42" d="M1036.4 506.1c-1.5-2.3-1.9-5-2.3-7.3-.4-3.1-.4-6.1 0-9.2 0-1.2.4-2.7 0-3.8 0-.8-.4-1.9-.8-2.7-.8-3.8-.4-8.4-1.2-12.3 0-.8-.4-1.9-1.2-2.7-1.2-1.2-2.7-1.2-3.8-.8-1.2.8-1.9 1.9-2.3 3.5v-.4c-1.9 5-.8 10.4-1.9 15.7-.8 3.1-1.5 5.8-2.3 8.8-.4 3.1-.4 6.5 1.5 8.8.8.8 1.5 1.5 2.7 2.3 2.7 1.9 5.4 3.1 8.4 4.2-.8-.8-1.5-1.9-1.5-3.1 1.5 1.2 3.1 2.3 5 3.1 1.9.8 3.8.8 5.8 0-1.9-.2-4.5-1.8-6.1-4.1z"/><path d="M1028 506.9c-.8-.8-1.9-1.2-2.7-2.3-1.9-2.3-2.3-5.8-1.5-8.8.4-3.1 1.5-5.8 2.3-8.8.8-5 0-14.6 0-14.6 0-1.5-.8-1.9-.8-1.9-1.9 5-.8 10.4-1.9 15.7-.8 3.1-1.5 5.8-2.3 8.8-.4 3.1-.4 6.5 1.5 8.8.8.8 1.5 1.5 2.7 2.3 2.7 1.9 5.4 3.1 8.4 4.2l-.4-.4c-1.9-1.1-3.8-1.9-5.3-3zm14.6 3.1h.4-1.2.8zm-7.7-2.4c0 .4 0 .8.4 1.2.8.4 1.5.8 2.3 1.2.8 0 1.2.4 1.5.4-1.9-.8-3.1-1.6-4.2-2.8z" fill="#bf9447"/><path class="error-404-42" d="M1024.9 471.2c-.8.4-1.5.4-2.3 0s-1.2-.8-1.9-1.2c-1.2-.8-3.1-.8-4.6-1.2-5-.8-10.4-1.2-14.2 1.5h-.4c3.8 9.2 8.4 18.4 13.1 27.6.8-.8 1.9-1.5 2.7-2.3 3.8-3.5 8.1-7.3 8.8-12.3.3-4.1-1.6-7.9-1.2-12.1z"/><path class="error-404-11" d="M1002.2 491.9h13.4v26.9h-13.4z"/><path class="error-404-13" d="M1007.6 499.6l-5-1.2v-6.9h13.4v1.2c.1 4.6-4.2 8-8.4 6.9z"/><path class="error-404-11" d="M993.4 483.8v11.9c0 1.9 1.5 3.1 3.1 3.1h8.1c5 0 8.8-3.8 8.8-8.8v-10.4c0-1.5-.8-3.1-1.9-3.8l-5.4-4.2c-1.5-1.2-3.5-1.2-5-.4-2.3 1.1-5.4 4.6-7.7 12.6z"/><path class="error-404-28" d="M1000.7 470l5 2.7c2.3 1.2 3.8 3.1 3.8 5.8v1.9l-12.3-2.7 3.5-7.7z"/><path class="error-404-28" d="M979.6 485.4l13.1 1.2 1.2-1.2 5 .8s5.8 1.9 11.9-3.1l1.2-4.2-15.4-7.7-17 14.2z"/><path class="error-404-28" d="M982.3 483.1l18.4-5c.8 0 1.2-.8 1.2-1.2v-7.7c0-.8-.8-1.5-1.9-1.2l-18.4 5c-.8 0-1.2.8-1.2 1.2v7.7c0 .4.7 1.2 1.9 1.2z"/><path class="error-404-3" d="M1000.7 478.1l23.8 11.5s.4 0 .4-.4v-4.6l-24.2-11.9v5.4z"/><path class="error-404-28" d="M1022.6 488.8s.4 0 .4-.4v-4.6l1.5.8v4.6c0 .4-.4.4-.4.4l-1.5-.8zm-3.1-1.5s.4 0 .4-.4v-4.6l1.5.8v4.6c0 .4-.4.4-.4.4l-1.5-.8zm-3.4-1.5s.4 0 .4-.4v-4.6l1.5.8v4.6c0 .4-.4.4-.4.4l-1.5-.8zm-3.5-2s.4 0 .4-.4v-4.6l1.5.8v4.6c0 .4-.4.4-.4.4l-1.5-.8zm-3.4-1.5s.4 0 .4-.4v-4.6l1.5.8v4.6c0 .4-.4.4-.4.4l-1.5-.8zm-3.5-1.5s.4 0 .4-.4v-4.2l1.5.8v4.6c0 .4-.4.4-.4.4l-1.5-1.2zm-3.5-2s.4 0 .4-.4v-4.6l1.5.8v4.6c0 .4-.4.4-.4.4l-1.5-.8z"/><path class="error-404-3" d="M979.6 485.4l18.4-5c.8 0 1.2-.8 1.2-1.2v-10.4c0-.8-.8-1.5-1.9-1.2l-18.4 5c-.8 0-1.2.8-1.2 1.2v10.4c.3.8 1.1 1.6 1.9 1.2z"/><ellipse class="error-404-28" cx="987.6" cy="476.5" rx="1.2" ry="1.9"/><path class="error-404-11" d="M1013.8 485s3.1-2.7 4.6 0v4.2c0 1.5-.8 3.1-2.3 3.8-.8.4-1.5.4-2.7 0l.4-8z"/><path class="error-404-3" d="M1024.9 474.6l-2.7-2.7c-.8-.8-.4-1.5 0-1.9l.4-.4c.8-.8 1.5-.4 1.9 0l2.7 2.7c.8.8.4 1.5 0 1.9l-.4.4c-.4.4-1.1.4-1.9 0z"/><path class="error-404-13" d="M1019.5 598.7c1.9-1.9 3.1-5 3.1-7.7v-13.4l-28 3.1-3.5 15.4v1.5c13.4 3.1 23.8-10.4 23.8-10.4l4.6 11.5z"/><path class="error-404-26" d="M987.6 509.2v26.9c0 3.5.8 6.9 1.9 10.4l1.5 3.8v43.4c13.4 3.1 23.8-10.4 23.8-10.4l6.9 17.7c2.7-3.8 4.2-8.4 3.8-12.7l-1.9-39.6.8-39.6-8.4 1.9-1.2 1.2c-3.5 3.8-9.6 3.5-12.7-1.2l-14.5-1.8z"/><path class="error-404-11" d="M923.5 476.9l-8.1-1.5.8 1.2c0 .4.4.4.8.8l6.5 1.9 3.8 5.8 3.5 3.1 18.4 30 26.1 3.8v-13.1l-19.2-1.2-22.3-26.1-.8-5.4-3.5-5.4-1.2-5.4-3.8-5c-.8 1.2-.8 2.7.4 3.8l.8 1.2 1.2 5-.8-.4-.8-1.5-7.3-4.6v1.2c0 .8.4 1.2.8 1.9l5.4 4.2.4 1.2-.4.8-2.3-1.9-6.9-1.5v1.9l5 1.2 3.5 2.3"/><path class="error-404-13" d="M933.1 476.2l-2.7-.8c-.8 0-1.2 0-1.5.4l-2.3 1.9v.4l2.3-1.5c.4-.4 1.2-.4 1.5-.4h2.7zm39.6 44.9l3 .4v-12.7h-1.1z"/><path class="error-404-26" d="M1002.2 504.2l-11.1 1.9-15.4 1.5v15l11.9 3.9 14.6-15.4z"/><path d="M1023.7 548.7v-1.5c-.4-.8-.8-1.2-1.2-1.5.4-.4.8-.8 1.2-.8v-6.5c-.4 0-.8 0-.8-.4.4-.8.4-1.5-.4-2.3.4-.4.8-.8 1.5-.8v-3.1c-.4-.4-1.2-.4-1.9 0-1.2.8-2.7 1.5-3.8 2.3-1.2.8-1.2 2.3 0 3.1-1.2.8-1.2 2.7.4 3.1 1.2.4 2.7.8 3.8 1.2-1.2.8-3.1 1.5-3.8 2.3-.8.8-.8 1.5-.4 2.3 0 .4.8 1.2 1.2 1.5 1.5 4.2 0 3.5.4 6.5 0 1.2.4 2.3.8 3.5-1.9-1.2 3.1 1.2 1.9-1.2-1.2-2.3 1.1-7.7 1.1-7.7z" opacity=".1" fill="#3a3c4e"/><path d="M1022.6 537.2l-1.5 13.4-11.5-6.1-.8-7.7-3.1-3.1-1.2-4.6-4.6-5.4c-.8 1.2-.4 2.7.4 3.8l1.5 2.7v6.5l-1.2.4-3.8-5.4c-1.2 1.2-1.2 2.7-.8 4.2l8.4 13.4 20 14.6-.8-15v-11.5h-1.2l.2-.2z" opacity=".2" fill="#3a3c4e"/><path class="error-404-11" d="M1031.4 535.3l-2.3 21.5-2.3 3.1c-1.2 1.5-3.1 1.9-4.6.8l-17.7-13.8-8.4-13.4c-.8-1.2-.8-3.1.8-4.2l3.8 5.4 1.2-.4v-6.5l-2.3-3.5c-.8-1.2-.8-2.3 0-3.1l.4-.4 4.6 6.1 1.2 4.6 3.1 3.1.8 7.7 11.5 6.1 1.5-13.4 8.7.3z"/><path class="error-404-13" d="M1031.4 535.3h-8.8v1.9h8.4z"/><path class="error-404-26" d="M1016.1 504.2l15 6.1c1.2.8 2.3 1.9 2.3 3.1v21.5h-11.9v-9.6l-5-14.6v-6.5h-.4z"/></svg>