<?xml version="1.0" encoding="utf-8"?>
<!-- Generator: Adobe Illustrator 22.1.0, SVG Export Plug-In . SVG Version: 6.00 Build 0)  -->
<svg version="1.1" id="Layer_1" xmlns="http://www.w3.org/2000/svg" xmlns:xlink="http://www.w3.org/1999/xlink" x="0px" y="0px"
	 viewBox="0 0 800 800" style="enable-background:new 0 0 800 800;" xml:space="preserve">
<style type="text/css">
	.st0{fill:#0AB4D0;}
</style>
<path class="st0" d="M470.3,400.4C429.8,358.2,391,317.6,352,277c-36.4-37.9-73-75.7-109.3-113.8c-13.4-14.1-20.5-30.2-13.1-50.1
	c5.9-15.8,17.7-24.6,33.7-27.8c18.3-3.6,31.6,5.7,43.5,18.2c49.8,52.2,99.8,104.3,149.7,156.5c32.6,34,65.2,68,97.7,102
	c25.7,27,25.7,49.6,0.2,76.3C472.3,524,390.2,609.6,308.2,695.4c-12.5,13.1-26.3,22.5-45,19.4c-34.8-5.9-48.6-44.2-25.1-71.5
	c18.7-21.8,39.3-41.9,59.2-62.7C354.5,521,411.6,461.5,470.3,400.4z"/>
</svg>
